<?xml version="1.0" encoding="iso-8859-1"?>
<!-- Uploaded to: SVG Repo, www.svgrepo.com, Transformed by: SVG Repo Mixer Tools -->
<svg height="800px" width="800px" version="1.1" id="Layer_1" xmlns="http://www.w3.org/2000/svg" xmlns:xlink="http://www.w3.org/1999/xlink" 
	 viewBox="0 0 512 512" xml:space="preserve">
<g transform="translate(1 1)">
	<polygon style="fill:#FDCC00;" points="255,219.579 131.414,290.2 131.414,431.441 255,502.062 378.586,431.441 378.586,290.2 	"/>
	<polygon style="fill:#FFE100;" points="378.586,7.717 255,60.683 255,219.579 378.586,290.2 502.172,219.579 502.172,78.338 	"/>
	<polygon style="fill:#FFA800;" points="502.172,78.338 378.586,7.717 363.579,13.897 475.69,78.338 475.69,219.579 
		365.345,282.255 378.586,290.2 502.172,219.579 	"/>
	<polygon style="fill:#FFE100;" points="131.414,7.717 7.828,78.338 7.828,219.579 131.414,290.2 255,219.579 255,60.683 	"/>
	<g>
		<polygon style="fill:#FFFFFF;" points="34.31,219.579 34.31,78.338 146.421,13.897 131.414,7.717 7.828,78.338 7.828,219.579 
			131.414,290.2 144.655,282.255 		"/>
		<polygon style="fill:#FFFFFF;" points="134.062,290.2 134.062,431.441 257.648,502.062 270.89,494.117 160.545,431.441 
			160.545,272.545 		"/>
	</g>
	<path d="M131.414,299.028c-1.766,0-2.648,0-4.414-0.883L3.414,227.524C0.766,225.759-1,223.11-1,219.579V78.338
		c0-3.531,1.766-6.179,4.414-7.945L127-0.228c2.648-0.883,5.297-0.883,7.945,0l123.586,52.966c2.648,0.883,5.297,4.414,5.297,7.945
		v158.897c0,3.531-1.766,6.179-4.414,7.945l-123.586,70.621C134.062,299.028,133.179,299.028,131.414,299.028z M16.655,214.283
		l114.759,65.324l114.759-65.324V65.979L132.297,17.428L16.655,83.634V214.283z"/>
	<path d="M378.586,299.028c-1.766,0-2.648,0-4.414-0.883l-123.586-70.621c-2.648-1.766-4.414-4.414-4.414-7.945V60.683
		c0-3.531,1.766-7.062,5.297-7.945L375.055-0.228c2.648-0.883,5.297-0.883,7.945,0l123.586,70.621
		c2.648,1.766,4.414,4.414,4.414,7.945v141.241c0,3.531-1.766,6.179-4.414,7.945L383,298.145
		C381.234,299.028,380.352,299.028,378.586,299.028z M263.828,214.283l114.759,65.324l114.759-65.324V83.634L378.586,17.428
		L263.828,66.862V214.283z"/>
	<path d="M255,510.89c-1.766,0-2.648,0-4.414-0.883L127,439.386c-2.648-1.766-4.414-4.414-4.414-7.945V290.2
		c0-3.531,1.766-6.179,4.414-7.945l123.586-70.621c2.648-1.766,6.179-1.766,8.828,0L383,282.255
		c2.648,1.766,4.414,4.414,4.414,7.945v141.241c0,3.531-1.766,6.179-4.414,7.945l-123.586,70.621
		C257.648,510.89,256.766,510.89,255,510.89z M140.241,426.145L255,491.469l114.759-65.324V295.497L255,230.172l-114.759,65.324
		V426.145z"/>
	<path d="M131.414,263.717c-1.766,0-3.531,0-4.414-0.883l-44.138-26.483c-4.414-2.648-5.297-7.945-3.531-12.359
		c2.648-4.414,7.945-5.297,12.359-3.531l44.138,26.483c4.414,2.648,5.297,7.945,2.648,12.359
		C137.593,261.952,134.062,263.717,131.414,263.717z"/>
	<path d="M60.793,219.579c-1.766,0-2.648,0-4.414-0.883l-3.531-1.766c-17.655-9.71-18.538-13.241-18.538-33.545v-7.945
		c0-5.297,3.531-8.828,8.828-8.828s8.828,3.531,8.828,8.828v7.945c0,12.359,0,12.359,9.71,17.655l3.531,1.766
		c4.414,2.648,5.297,7.945,3.531,12.359C66.972,217.814,63.441,219.579,60.793,219.579z"/>
	<path d="M43.138,148.959c-5.297,0-8.828-3.531-8.828-8.828V95.993c0-5.297,3.531-8.828,8.828-8.828s8.828,3.531,8.828,8.828v44.138
		C51.966,145.428,48.434,148.959,43.138,148.959z"/>
	<path d="M378.586,263.717c-1.766,0-3.531,0-4.414-0.883l-44.138-26.483c-4.414-2.648-5.297-7.945-2.648-12.359
		c2.648-4.414,7.945-5.297,12.359-2.648l44.138,26.483c4.414,2.648,5.297,7.945,2.648,12.359
		C384.766,261.952,381.234,263.717,378.586,263.717z"/>
	<path d="M307.966,219.579c-1.766,0-2.648,0-4.414-0.883l-3.531-1.766c-17.655-9.71-18.538-13.241-18.538-33.545v-7.062
		c0-5.297,3.531-8.828,8.828-8.828c5.297,0,8.828,3.531,8.828,8.828v7.945c0,12.359,0,12.359,9.71,17.655l3.531,1.766
		c4.414,2.648,5.297,7.945,3.531,12.359C314.145,217.814,311.497,219.579,307.966,219.579z"/>
	<path d="M290.31,148.959c-5.297,0-8.828-3.531-8.828-8.828V95.993c0-5.297,3.531-8.828,8.828-8.828s8.828,3.531,8.828,8.828v44.138
		C299.138,145.428,295.607,148.959,290.31,148.959z"/>
	<path d="M255,475.579c-1.766,0-3.531,0-4.414-0.883l-44.138-26.483c-4.414-2.648-5.297-7.945-2.648-12.359
		c2.648-4.414,7.945-5.297,12.359-2.648l44.138,26.483c4.414,2.648,5.297,7.945,2.648,12.359
		C261.179,473.814,257.648,475.579,255,475.579z"/>
	<path d="M184.379,431.441c-1.766,0-2.648,0-4.414-0.883l-3.531-1.766c-17.655-9.71-18.538-13.241-18.538-33.545v-7.062
		c0-5.297,3.531-8.828,8.828-8.828s8.828,3.531,8.828,8.828v7.945c0,12.359,0,12.359,9.71,17.655l3.531,1.766
		c4.414,2.648,5.297,7.945,3.531,12.359C190.559,429.676,187.028,431.441,184.379,431.441z"/>
	<path d="M166.724,360.821c-5.297,0-8.828-3.531-8.828-8.828v-44.138c0-5.297,3.531-8.828,8.828-8.828s8.828,3.531,8.828,8.828
		v44.138C175.552,357.29,172.021,360.821,166.724,360.821z"/>
</g>
</svg>